<?xml version="1.0" encoding="utf-8" standalone="no"?>
<!DOCTYPE svg PUBLIC "-//W3C//DTD SVG 1.1//EN"
  "http://www.w3.org/Graphics/SVG/1.1/DTD/svg11.dtd">
<svg xmlns:xlink="http://www.w3.org/1999/xlink" width="871.946875pt" height="296.07625pt" viewBox="0 0 871.946875 296.07625" xmlns="http://www.w3.org/2000/svg" version="1.1">
 <metadata>
  <rdf:RDF xmlns:dc="http://purl.org/dc/elements/1.1/" xmlns:cc="http://creativecommons.org/ns#" xmlns:rdf="http://www.w3.org/1999/02/22-rdf-syntax-ns#">
   <cc:Work>
    <dc:type rdf:resource="http://purl.org/dc/dcmitype/StillImage"/>
    <dc:date>2025-01-08T16:15:01.134696</dc:date>
    <dc:format>image/svg+xml</dc:format>
    <dc:creator>
     <cc:Agent>
      <dc:title>Matplotlib v3.8.0, https://matplotlib.org/</dc:title>
     </cc:Agent>
    </dc:creator>
   </cc:Work>
  </rdf:RDF>
 </metadata>
 <defs>
  <style type="text/css">*{stroke-linejoin: round; stroke-linecap: butt}</style>
 </defs>
 <g id="figure_1">
  <g id="patch_1">
   <path d="M 0 296.07625 
L 871.946875 296.07625 
L 871.946875 0 
L 0 0 
z
" style="fill: #ffffff"/>
  </g>
  <g id="axes_1">
   <g id="patch_2">
    <path d="M 46.965625 258.52 
L 828.165625 258.52 
L 828.165625 36.76 
L 46.965625 36.76 
z
" style="fill: #ffffff"/>
   </g>
   <g id="matplotlib.axis_1">
    <g id="xtick_1">
     <g id="line2d_1">
      <defs>
       <path id="md0a7d210b7" d="M 0 0 
L 0 3.5 
" style="stroke: #000000; stroke-width: 0.8"/>
      </defs>
      <g>
       <use xlink:href="#md0a7d210b7" x="148.232292" y="258.52" style="stroke: #000000; stroke-width: 0.8"/>
      </g>
     </g>
     <g id="text_1">
      <!-- 2013 -->
      <g transform="translate(135.507292 273.118437) scale(0.1 -0.1)">
       <defs>
        <path id="DejaVuSans-32" d="M 1228 531 
L 3431 531 
L 3431 0 
L 469 0 
L 469 531 
Q 828 903 1448 1529 
Q 2069 2156 2228 2338 
Q 2531 2678 2651 2914 
Q 2772 3150 2772 3378 
Q 2772 3750 2511 3984 
Q 2250 4219 1831 4219 
Q 1534 4219 1204 4116 
Q 875 4013 500 3803 
L 500 4441 
Q 881 4594 1212 4672 
Q 1544 4750 1819 4750 
Q 2544 4750 2975 4387 
Q 3406 4025 3406 3419 
Q 3406 3131 3298 2873 
Q 3191 2616 2906 2266 
Q 2828 2175 2409 1742 
Q 1991 1309 1228 531 
z
" transform="scale(0.015625)"/>
        <path id="DejaVuSans-30" d="M 2034 4250 
Q 1547 4250 1301 3770 
Q 1056 3291 1056 2328 
Q 1056 1369 1301 889 
Q 1547 409 2034 409 
Q 2525 409 2770 889 
Q 3016 1369 3016 2328 
Q 3016 3291 2770 3770 
Q 2525 4250 2034 4250 
z
M 2034 4750 
Q 2819 4750 3233 4129 
Q 3647 3509 3647 2328 
Q 3647 1150 3233 529 
Q 2819 -91 2034 -91 
Q 1250 -91 836 529 
Q 422 1150 422 2328 
Q 422 3509 836 4129 
Q 1250 4750 2034 4750 
z
" transform="scale(0.015625)"/>
        <path id="DejaVuSans-31" d="M 794 531 
L 1825 531 
L 1825 4091 
L 703 3866 
L 703 4441 
L 1819 4666 
L 2450 4666 
L 2450 531 
L 3481 531 
L 3481 0 
L 794 0 
L 794 531 
z
" transform="scale(0.015625)"/>
        <path id="DejaVuSans-33" d="M 2597 2516 
Q 3050 2419 3304 2112 
Q 3559 1806 3559 1356 
Q 3559 666 3084 287 
Q 2609 -91 1734 -91 
Q 1441 -91 1130 -33 
Q 819 25 488 141 
L 488 750 
Q 750 597 1062 519 
Q 1375 441 1716 441 
Q 2309 441 2620 675 
Q 2931 909 2931 1356 
Q 2931 1769 2642 2001 
Q 2353 2234 1838 2234 
L 1294 2234 
L 1294 2753 
L 1863 2753 
Q 2328 2753 2575 2939 
Q 2822 3125 2822 3475 
Q 2822 3834 2567 4026 
Q 2313 4219 1838 4219 
Q 1578 4219 1281 4162 
Q 984 4106 628 3988 
L 628 4550 
Q 988 4650 1302 4700 
Q 1616 4750 1894 4750 
Q 2613 4750 3031 4423 
Q 3450 4097 3450 3541 
Q 3450 3153 3228 2886 
Q 3006 2619 2597 2516 
z
" transform="scale(0.015625)"/>
       </defs>
       <use xlink:href="#DejaVuSans-32"/>
       <use xlink:href="#DejaVuSans-30" x="63.623047"/>
       <use xlink:href="#DejaVuSans-31" x="127.246094"/>
       <use xlink:href="#DejaVuSans-33" x="190.869141"/>
      </g>
     </g>
    </g>
    <g id="xtick_2">
     <g id="line2d_2">
      <g>
       <use xlink:href="#md0a7d210b7" x="263.965625" y="258.52" style="stroke: #000000; stroke-width: 0.8"/>
      </g>
     </g>
     <g id="text_2">
      <!-- 2015 -->
      <g transform="translate(251.240625 273.118437) scale(0.1 -0.1)">
       <defs>
        <path id="DejaVuSans-35" d="M 691 4666 
L 3169 4666 
L 3169 4134 
L 1269 4134 
L 1269 2991 
Q 1406 3038 1543 3061 
Q 1681 3084 1819 3084 
Q 2600 3084 3056 2656 
Q 3513 2228 3513 1497 
Q 3513 744 3044 326 
Q 2575 -91 1722 -91 
Q 1428 -91 1123 -41 
Q 819 9 494 109 
L 494 744 
Q 775 591 1075 516 
Q 1375 441 1709 441 
Q 2250 441 2565 725 
Q 2881 1009 2881 1497 
Q 2881 1984 2565 2268 
Q 2250 2553 1709 2553 
Q 1456 2553 1204 2497 
Q 953 2441 691 2322 
L 691 4666 
z
" transform="scale(0.015625)"/>
       </defs>
       <use xlink:href="#DejaVuSans-32"/>
       <use xlink:href="#DejaVuSans-30" x="63.623047"/>
       <use xlink:href="#DejaVuSans-31" x="127.246094"/>
       <use xlink:href="#DejaVuSans-35" x="190.869141"/>
      </g>
     </g>
    </g>
    <g id="xtick_3">
     <g id="line2d_3">
      <g>
       <use xlink:href="#md0a7d210b7" x="379.698958" y="258.52" style="stroke: #000000; stroke-width: 0.8"/>
      </g>
     </g>
     <g id="text_3">
      <!-- 2017 -->
      <g transform="translate(366.973958 273.118437) scale(0.1 -0.1)">
       <defs>
        <path id="DejaVuSans-37" d="M 525 4666 
L 3525 4666 
L 3525 4397 
L 1831 0 
L 1172 0 
L 2766 4134 
L 525 4134 
L 525 4666 
z
" transform="scale(0.015625)"/>
       </defs>
       <use xlink:href="#DejaVuSans-32"/>
       <use xlink:href="#DejaVuSans-30" x="63.623047"/>
       <use xlink:href="#DejaVuSans-31" x="127.246094"/>
       <use xlink:href="#DejaVuSans-37" x="190.869141"/>
      </g>
     </g>
    </g>
    <g id="xtick_4">
     <g id="line2d_4">
      <g>
       <use xlink:href="#md0a7d210b7" x="495.432292" y="258.52" style="stroke: #000000; stroke-width: 0.8"/>
      </g>
     </g>
     <g id="text_4">
      <!-- 2019 -->
      <g transform="translate(482.707292 273.118437) scale(0.1 -0.1)">
       <defs>
        <path id="DejaVuSans-39" d="M 703 97 
L 703 672 
Q 941 559 1184 500 
Q 1428 441 1663 441 
Q 2288 441 2617 861 
Q 2947 1281 2994 2138 
Q 2813 1869 2534 1725 
Q 2256 1581 1919 1581 
Q 1219 1581 811 2004 
Q 403 2428 403 3163 
Q 403 3881 828 4315 
Q 1253 4750 1959 4750 
Q 2769 4750 3195 4129 
Q 3622 3509 3622 2328 
Q 3622 1225 3098 567 
Q 2575 -91 1691 -91 
Q 1453 -91 1209 -44 
Q 966 3 703 97 
z
M 1959 2075 
Q 2384 2075 2632 2365 
Q 2881 2656 2881 3163 
Q 2881 3666 2632 3958 
Q 2384 4250 1959 4250 
Q 1534 4250 1286 3958 
Q 1038 3666 1038 3163 
Q 1038 2656 1286 2365 
Q 1534 2075 1959 2075 
z
" transform="scale(0.015625)"/>
       </defs>
       <use xlink:href="#DejaVuSans-32"/>
       <use xlink:href="#DejaVuSans-30" x="63.623047"/>
       <use xlink:href="#DejaVuSans-31" x="127.246094"/>
       <use xlink:href="#DejaVuSans-39" x="190.869141"/>
      </g>
     </g>
    </g>
    <g id="xtick_5">
     <g id="line2d_5">
      <g>
       <use xlink:href="#md0a7d210b7" x="611.165625" y="258.52" style="stroke: #000000; stroke-width: 0.8"/>
      </g>
     </g>
     <g id="text_5">
      <!-- 2021 -->
      <g transform="translate(598.440625 273.118437) scale(0.1 -0.1)">
       <use xlink:href="#DejaVuSans-32"/>
       <use xlink:href="#DejaVuSans-30" x="63.623047"/>
       <use xlink:href="#DejaVuSans-32" x="127.246094"/>
       <use xlink:href="#DejaVuSans-31" x="190.869141"/>
      </g>
     </g>
    </g>
    <g id="xtick_6">
     <g id="line2d_6">
      <g>
       <use xlink:href="#md0a7d210b7" x="726.898958" y="258.52" style="stroke: #000000; stroke-width: 0.8"/>
      </g>
     </g>
     <g id="text_6">
      <!-- 2023 -->
      <g transform="translate(714.173958 273.118437) scale(0.1 -0.1)">
       <use xlink:href="#DejaVuSans-32"/>
       <use xlink:href="#DejaVuSans-30" x="63.623047"/>
       <use xlink:href="#DejaVuSans-32" x="127.246094"/>
       <use xlink:href="#DejaVuSans-33" x="190.869141"/>
      </g>
     </g>
    </g>
    <g id="xtick_7">
     <g id="line2d_7">
      <defs>
       <path id="md0a9573454" d="M 0 0 
L 0 2 
" style="stroke: #000000; stroke-width: 0.6"/>
      </defs>
      <g>
       <use xlink:href="#md0a9573454" x="90.365625" y="258.52" style="stroke: #000000; stroke-width: 0.6"/>
      </g>
     </g>
    </g>
    <g id="xtick_8">
     <g id="line2d_8">
      <g>
       <use xlink:href="#md0a9573454" x="206.098958" y="258.52" style="stroke: #000000; stroke-width: 0.6"/>
      </g>
     </g>
    </g>
    <g id="xtick_9">
     <g id="line2d_9">
      <g>
       <use xlink:href="#md0a9573454" x="321.832292" y="258.52" style="stroke: #000000; stroke-width: 0.6"/>
      </g>
     </g>
    </g>
    <g id="xtick_10">
     <g id="line2d_10">
      <g>
       <use xlink:href="#md0a9573454" x="437.565625" y="258.52" style="stroke: #000000; stroke-width: 0.6"/>
      </g>
     </g>
    </g>
    <g id="xtick_11">
     <g id="line2d_11">
      <g>
       <use xlink:href="#md0a9573454" x="553.298958" y="258.52" style="stroke: #000000; stroke-width: 0.6"/>
      </g>
     </g>
    </g>
    <g id="xtick_12">
     <g id="line2d_12">
      <g>
       <use xlink:href="#md0a9573454" x="669.032292" y="258.52" style="stroke: #000000; stroke-width: 0.6"/>
      </g>
     </g>
    </g>
    <g id="xtick_13">
     <g id="line2d_13">
      <g>
       <use xlink:href="#md0a9573454" x="784.765625" y="258.52" style="stroke: #000000; stroke-width: 0.6"/>
      </g>
     </g>
    </g>
    <g id="text_7">
     <!-- Date -->
     <g transform="translate(425.614844 286.796562) scale(0.1 -0.1)">
      <defs>
       <path id="DejaVuSans-44" d="M 1259 4147 
L 1259 519 
L 2022 519 
Q 2988 519 3436 956 
Q 3884 1394 3884 2338 
Q 3884 3275 3436 3711 
Q 2988 4147 2022 4147 
L 1259 4147 
z
M 628 4666 
L 1925 4666 
Q 3281 4666 3915 4102 
Q 4550 3538 4550 2338 
Q 4550 1131 3912 565 
Q 3275 0 1925 0 
L 628 0 
L 628 4666 
z
" transform="scale(0.015625)"/>
       <path id="DejaVuSans-61" d="M 2194 1759 
Q 1497 1759 1228 1600 
Q 959 1441 959 1056 
Q 959 750 1161 570 
Q 1363 391 1709 391 
Q 2188 391 2477 730 
Q 2766 1069 2766 1631 
L 2766 1759 
L 2194 1759 
z
M 3341 1997 
L 3341 0 
L 2766 0 
L 2766 531 
Q 2569 213 2275 61 
Q 1981 -91 1556 -91 
Q 1019 -91 701 211 
Q 384 513 384 1019 
Q 384 1609 779 1909 
Q 1175 2209 1959 2209 
L 2766 2209 
L 2766 2266 
Q 2766 2663 2505 2880 
Q 2244 3097 1772 3097 
Q 1472 3097 1187 3025 
Q 903 2953 641 2809 
L 641 3341 
Q 956 3463 1253 3523 
Q 1550 3584 1831 3584 
Q 2591 3584 2966 3190 
Q 3341 2797 3341 1997 
z
" transform="scale(0.015625)"/>
       <path id="DejaVuSans-74" d="M 1172 4494 
L 1172 3500 
L 2356 3500 
L 2356 3053 
L 1172 3053 
L 1172 1153 
Q 1172 725 1289 603 
Q 1406 481 1766 481 
L 2356 481 
L 2356 0 
L 1766 0 
Q 1100 0 847 248 
Q 594 497 594 1153 
L 594 3053 
L 172 3053 
L 172 3500 
L 594 3500 
L 594 4494 
L 1172 4494 
z
" transform="scale(0.015625)"/>
       <path id="DejaVuSans-65" d="M 3597 1894 
L 3597 1613 
L 953 1613 
Q 991 1019 1311 708 
Q 1631 397 2203 397 
Q 2534 397 2845 478 
Q 3156 559 3463 722 
L 3463 178 
Q 3153 47 2828 -22 
Q 2503 -91 2169 -91 
Q 1331 -91 842 396 
Q 353 884 353 1716 
Q 353 2575 817 3079 
Q 1281 3584 2069 3584 
Q 2775 3584 3186 3129 
Q 3597 2675 3597 1894 
z
M 3022 2063 
Q 3016 2534 2758 2815 
Q 2500 3097 2075 3097 
Q 1594 3097 1305 2825 
Q 1016 2553 972 2059 
L 3022 2063 
z
" transform="scale(0.015625)"/>
      </defs>
      <use xlink:href="#DejaVuSans-44"/>
      <use xlink:href="#DejaVuSans-61" x="77.001953"/>
      <use xlink:href="#DejaVuSans-74" x="138.28125"/>
      <use xlink:href="#DejaVuSans-65" x="177.490234"/>
     </g>
    </g>
   </g>
   <g id="matplotlib.axis_2">
    <g id="ytick_1">
     <g id="line2d_14">
      <defs>
       <path id="ma31e62f9c5" d="M 0 0 
L -3.5 0 
" style="stroke: #000000; stroke-width: 0.8"/>
      </defs>
      <g>
       <use xlink:href="#ma31e62f9c5" x="46.965625" y="217.209591" style="stroke: #000000; stroke-width: 0.8"/>
      </g>
     </g>
     <g id="text_8">
      <!-- 500 -->
      <g transform="translate(20.878125 221.00881) scale(0.1 -0.1)">
       <use xlink:href="#DejaVuSans-35"/>
       <use xlink:href="#DejaVuSans-30" x="63.623047"/>
       <use xlink:href="#DejaVuSans-30" x="127.246094"/>
      </g>
     </g>
    </g>
    <g id="ytick_2">
     <g id="line2d_15">
      <g>
       <use xlink:href="#ma31e62f9c5" x="46.965625" y="169.014516" style="stroke: #000000; stroke-width: 0.8"/>
      </g>
     </g>
     <g id="text_9">
      <!-- 600 -->
      <g transform="translate(20.878125 172.813735) scale(0.1 -0.1)">
       <defs>
        <path id="DejaVuSans-36" d="M 2113 2584 
Q 1688 2584 1439 2293 
Q 1191 2003 1191 1497 
Q 1191 994 1439 701 
Q 1688 409 2113 409 
Q 2538 409 2786 701 
Q 3034 994 3034 1497 
Q 3034 2003 2786 2293 
Q 2538 2584 2113 2584 
z
M 3366 4563 
L 3366 3988 
Q 3128 4100 2886 4159 
Q 2644 4219 2406 4219 
Q 1781 4219 1451 3797 
Q 1122 3375 1075 2522 
Q 1259 2794 1537 2939 
Q 1816 3084 2150 3084 
Q 2853 3084 3261 2657 
Q 3669 2231 3669 1497 
Q 3669 778 3244 343 
Q 2819 -91 2113 -91 
Q 1303 -91 875 529 
Q 447 1150 447 2328 
Q 447 3434 972 4092 
Q 1497 4750 2381 4750 
Q 2619 4750 2861 4703 
Q 3103 4656 3366 4563 
z
" transform="scale(0.015625)"/>
       </defs>
       <use xlink:href="#DejaVuSans-36"/>
       <use xlink:href="#DejaVuSans-30" x="63.623047"/>
       <use xlink:href="#DejaVuSans-30" x="127.246094"/>
      </g>
     </g>
    </g>
    <g id="ytick_3">
     <g id="line2d_16">
      <g>
       <use xlink:href="#ma31e62f9c5" x="46.965625" y="120.819441" style="stroke: #000000; stroke-width: 0.8"/>
      </g>
     </g>
     <g id="text_10">
      <!-- 700 -->
      <g transform="translate(20.878125 124.618659) scale(0.1 -0.1)">
       <use xlink:href="#DejaVuSans-37"/>
       <use xlink:href="#DejaVuSans-30" x="63.623047"/>
       <use xlink:href="#DejaVuSans-30" x="127.246094"/>
      </g>
     </g>
    </g>
    <g id="ytick_4">
     <g id="line2d_17">
      <g>
       <use xlink:href="#ma31e62f9c5" x="46.965625" y="72.624365" style="stroke: #000000; stroke-width: 0.8"/>
      </g>
     </g>
     <g id="text_11">
      <!-- 800 -->
      <g transform="translate(20.878125 76.423584) scale(0.1 -0.1)">
       <defs>
        <path id="DejaVuSans-38" d="M 2034 2216 
Q 1584 2216 1326 1975 
Q 1069 1734 1069 1313 
Q 1069 891 1326 650 
Q 1584 409 2034 409 
Q 2484 409 2743 651 
Q 3003 894 3003 1313 
Q 3003 1734 2745 1975 
Q 2488 2216 2034 2216 
z
M 1403 2484 
Q 997 2584 770 2862 
Q 544 3141 544 3541 
Q 544 4100 942 4425 
Q 1341 4750 2034 4750 
Q 2731 4750 3128 4425 
Q 3525 4100 3525 3541 
Q 3525 3141 3298 2862 
Q 3072 2584 2669 2484 
Q 3125 2378 3379 2068 
Q 3634 1759 3634 1313 
Q 3634 634 3220 271 
Q 2806 -91 2034 -91 
Q 1263 -91 848 271 
Q 434 634 434 1313 
Q 434 1759 690 2068 
Q 947 2378 1403 2484 
z
M 1172 3481 
Q 1172 3119 1398 2916 
Q 1625 2713 2034 2713 
Q 2441 2713 2670 2916 
Q 2900 3119 2900 3481 
Q 2900 3844 2670 4047 
Q 2441 4250 2034 4250 
Q 1625 4250 1398 4047 
Q 1172 3844 1172 3481 
z
" transform="scale(0.015625)"/>
       </defs>
       <use xlink:href="#DejaVuSans-38"/>
       <use xlink:href="#DejaVuSans-30" x="63.623047"/>
       <use xlink:href="#DejaVuSans-30" x="127.246094"/>
      </g>
     </g>
    </g>
    <g id="text_12">
     <!-- Wind Speed -->
     <g transform="translate(14.798438 177.468125) rotate(-90) scale(0.1 -0.1)">
      <defs>
       <path id="DejaVuSans-57" d="M 213 4666 
L 850 4666 
L 1831 722 
L 2809 4666 
L 3519 4666 
L 4500 722 
L 5478 4666 
L 6119 4666 
L 4947 0 
L 4153 0 
L 3169 4050 
L 2175 0 
L 1381 0 
L 213 4666 
z
" transform="scale(0.015625)"/>
       <path id="DejaVuSans-69" d="M 603 3500 
L 1178 3500 
L 1178 0 
L 603 0 
L 603 3500 
z
M 603 4863 
L 1178 4863 
L 1178 4134 
L 603 4134 
L 603 4863 
z
" transform="scale(0.015625)"/>
       <path id="DejaVuSans-6e" d="M 3513 2113 
L 3513 0 
L 2938 0 
L 2938 2094 
Q 2938 2591 2744 2837 
Q 2550 3084 2163 3084 
Q 1697 3084 1428 2787 
Q 1159 2491 1159 1978 
L 1159 0 
L 581 0 
L 581 3500 
L 1159 3500 
L 1159 2956 
Q 1366 3272 1645 3428 
Q 1925 3584 2291 3584 
Q 2894 3584 3203 3211 
Q 3513 2838 3513 2113 
z
" transform="scale(0.015625)"/>
       <path id="DejaVuSans-64" d="M 2906 2969 
L 2906 4863 
L 3481 4863 
L 3481 0 
L 2906 0 
L 2906 525 
Q 2725 213 2448 61 
Q 2172 -91 1784 -91 
Q 1150 -91 751 415 
Q 353 922 353 1747 
Q 353 2572 751 3078 
Q 1150 3584 1784 3584 
Q 2172 3584 2448 3432 
Q 2725 3281 2906 2969 
z
M 947 1747 
Q 947 1113 1208 752 
Q 1469 391 1925 391 
Q 2381 391 2643 752 
Q 2906 1113 2906 1747 
Q 2906 2381 2643 2742 
Q 2381 3103 1925 3103 
Q 1469 3103 1208 2742 
Q 947 2381 947 1747 
z
" transform="scale(0.015625)"/>
       <path id="DejaVuSans-20" transform="scale(0.015625)"/>
       <path id="DejaVuSans-53" d="M 3425 4513 
L 3425 3897 
Q 3066 4069 2747 4153 
Q 2428 4238 2131 4238 
Q 1616 4238 1336 4038 
Q 1056 3838 1056 3469 
Q 1056 3159 1242 3001 
Q 1428 2844 1947 2747 
L 2328 2669 
Q 3034 2534 3370 2195 
Q 3706 1856 3706 1288 
Q 3706 609 3251 259 
Q 2797 -91 1919 -91 
Q 1588 -91 1214 -16 
Q 841 59 441 206 
L 441 856 
Q 825 641 1194 531 
Q 1563 422 1919 422 
Q 2459 422 2753 634 
Q 3047 847 3047 1241 
Q 3047 1584 2836 1778 
Q 2625 1972 2144 2069 
L 1759 2144 
Q 1053 2284 737 2584 
Q 422 2884 422 3419 
Q 422 4038 858 4394 
Q 1294 4750 2059 4750 
Q 2388 4750 2728 4690 
Q 3069 4631 3425 4513 
z
" transform="scale(0.015625)"/>
       <path id="DejaVuSans-70" d="M 1159 525 
L 1159 -1331 
L 581 -1331 
L 581 3500 
L 1159 3500 
L 1159 2969 
Q 1341 3281 1617 3432 
Q 1894 3584 2278 3584 
Q 2916 3584 3314 3078 
Q 3713 2572 3713 1747 
Q 3713 922 3314 415 
Q 2916 -91 2278 -91 
Q 1894 -91 1617 61 
Q 1341 213 1159 525 
z
M 3116 1747 
Q 3116 2381 2855 2742 
Q 2594 3103 2138 3103 
Q 1681 3103 1420 2742 
Q 1159 2381 1159 1747 
Q 1159 1113 1420 752 
Q 1681 391 2138 391 
Q 2594 391 2855 752 
Q 3116 1113 3116 1747 
z
" transform="scale(0.015625)"/>
      </defs>
      <use xlink:href="#DejaVuSans-57"/>
      <use xlink:href="#DejaVuSans-69" x="96.626953"/>
      <use xlink:href="#DejaVuSans-6e" x="124.410156"/>
      <use xlink:href="#DejaVuSans-64" x="187.789062"/>
      <use xlink:href="#DejaVuSans-20" x="251.265625"/>
      <use xlink:href="#DejaVuSans-53" x="283.052734"/>
      <use xlink:href="#DejaVuSans-70" x="346.529297"/>
      <use xlink:href="#DejaVuSans-65" x="410.005859"/>
      <use xlink:href="#DejaVuSans-65" x="471.529297"/>
      <use xlink:href="#DejaVuSans-64" x="533.052734"/>
     </g>
    </g>
   </g>
   <g id="line2d_18">
    <path d="M 46.965625 189.015472 
L 51.787847 192.340932 
L 56.610069 200.919656 
L 61.432292 171.90622 
L 66.254514 201.208826 
L 71.076736 236.680402 
L 75.898958 194.509711 
L 80.721181 245.066345 
L 85.543403 104.28853 
L 90.365625 116.722859 
L 95.187847 185.786402 
L 100.010069 191.714396 
L 104.832292 206.75126 
L 109.654514 194.413321 
L 114.476736 206.606675 
L 119.298958 217.402372 
L 124.121181 237.740693 
L 128.943403 215.811934 
L 133.765625 197.642391 
L 138.587847 221.017002 
L 143.410069 194.461516 
L 148.232292 188.051571 
L 153.054514 236.102061 
L 157.876736 204.534286 
L 162.698958 224.679828 
L 167.521181 202.702874 
L 172.343403 211.137012 
L 177.165625 245.789271 
L 181.987847 242.512006 
L 186.810069 207.233211 
L 191.632292 188.196156 
L 196.454514 196.678489 
L 201.276736 157.351308 
L 206.098958 170.460368 
L 210.921181 226.22207 
L 215.743403 207.233211 
L 220.565625 213.2094 
L 225.387847 186.750304 
L 230.210069 231.234358 
L 235.032292 234.656208 
L 239.854514 226.944996 
L 244.676736 232.39104 
L 249.498958 238.029864 
L 254.321181 231.475333 
L 259.143403 146.844781 
L 263.965625 121.542367 
L 268.787847 236.776792 
L 273.610069 161.303304 
L 278.432292 186.750304 
L 283.254514 194.509711 
L 288.076736 232.053674 
L 292.898958 172.725537 
L 297.721181 222.60744 
L 302.543403 213.739546 
L 307.365625 240.150447 
L 312.187847 160.869548 
L 317.010069 142.410834 
L 321.832292 191.136055 
L 326.654514 156.917552 
L 331.476736 224.535243 
L 336.298958 211.137012 
L 341.121181 201.497997 
L 345.943403 246.704977 
L 350.765625 207.377796 
L 360.410069 248.44 
L 365.232292 227.282362 
L 370.054514 222.173684 
L 374.876736 186.461133 
L 379.698958 191.955372 
L 384.521181 188.726302 
L 389.343403 149.591901 
L 394.165625 146.362831 
L 398.987847 180.918699 
L 403.810069 145.013368 
L 408.632292 184.918891 
L 413.454514 182.798307 
L 418.276736 187.906985 
L 423.098958 98.360536 
L 427.921181 169.785637 
L 432.743403 111.806962 
L 437.565625 102.987263 
L 442.387847 243.186737 
L 447.210069 148.965365 
L 452.032292 158.363404 
L 456.854514 161.592474 
L 461.676736 174.460559 
L 466.498958 200.244925 
L 471.321181 169.592857 
L 476.143403 180.436749 
L 480.965625 150.218437 
L 485.787847 206.895845 
L 490.610069 136.772011 
L 495.432292 124.578656 
L 500.254514 195.473612 
L 505.076736 67.660273 
L 509.898958 169.207296 
L 514.721181 143.471126 
L 519.543403 180.099383 
L 524.365625 172.436366 
L 529.187847 188.967277 
L 534.010069 169.689247 
L 538.832292 174.94251 
L 543.654514 186.461133 
L 548.476736 160.291207 
L 553.298958 148.531609 
L 558.121181 46.84 
L 562.943403 130.795821 
L 567.765625 188.822692 
L 572.587847 149.061755 
L 577.410069 183.280258 
L 582.232292 172.629147 
L 587.054514 189.738398 
L 591.876736 222.655635 
L 596.698958 151.664289 
L 601.521181 212.149108 
L 606.343403 177.496849 
L 611.165625 177.9788 
L 615.987847 213.546765 
L 620.810069 166.122811 
L 625.632292 155.905455 
L 630.454514 135.229768 
L 635.276736 220.390466 
L 640.098958 193.83498 
L 644.921181 172.532756 
L 649.743403 212.534669 
L 654.565625 161.206914 
L 659.387847 185.256256 
L 664.210069 177.737825 
L 669.032292 100.722094 
L 673.854514 64.334812 
L 678.676736 206.413894 
L 683.498958 130.072895 
L 688.321181 148.242438 
L 693.143403 190.075764 
L 697.965625 157.833258 
L 702.787847 225.9329 
L 707.610069 211.908133 
L 712.432292 187.135864 
L 717.254514 199.184633 
L 722.076736 194.943466 
L 726.898958 132.386259 
L 731.721181 163.713058 
L 736.543403 127.470361 
L 741.365625 174.074999 
L 746.187847 158.556185 
L 751.010069 197.979756 
L 755.832292 122.458073 
L 760.654514 185.015281 
L 765.476736 225.258169 
L 770.298958 132.627234 
L 775.121181 121.542367 
L 779.943403 108.433306 
L 784.765625 105.927162 
L 789.587847 128.000507 
L 794.410069 174.94251 
L 799.232292 146.555611 
L 804.054514 171.71344 
L 808.876736 181.11148 
L 813.698958 177.304069 
L 818.521181 194.557906 
L 823.343403 140.001081 
L 828.165625 161.544279 
L 828.165625 161.544279 
" clip-path="url(#p9548a0d7fc)" style="fill: none; stroke: #1f77b4; stroke-width: 1.5; stroke-linecap: square"/>
   </g>
   <g id="patch_3">
    <path d="M 46.965625 258.52 
L 46.965625 36.76 
" style="fill: none; stroke: #000000; stroke-width: 0.8; stroke-linejoin: miter; stroke-linecap: square"/>
   </g>
   <g id="patch_4">
    <path d="M 828.165625 258.52 
L 828.165625 36.76 
" style="fill: none; stroke: #000000; stroke-width: 0.8; stroke-linejoin: miter; stroke-linecap: square"/>
   </g>
   <g id="patch_5">
    <path d="M 46.965625 258.52 
L 828.165625 258.52 
" style="fill: none; stroke: #000000; stroke-width: 0.8; stroke-linejoin: miter; stroke-linecap: square"/>
   </g>
   <g id="patch_6">
    <path d="M 46.965625 36.76 
L 828.165625 36.76 
" style="fill: none; stroke: #000000; stroke-width: 0.8; stroke-linejoin: miter; stroke-linecap: square"/>
   </g>
  </g>
  <g id="axes_2">
   <g id="matplotlib.axis_3">
    <g id="ytick_5">
     <g id="line2d_19">
      <defs>
       <path id="m3e85aab08a" d="M 0 0 
L 3.5 0 
" style="stroke: #000000; stroke-width: 0.8"/>
      </defs>
      <g>
       <use xlink:href="#m3e85aab08a" x="828.165625" y="248.37413" style="stroke: #000000; stroke-width: 0.8"/>
      </g>
     </g>
     <g id="text_13">
      <!-- 0.2 -->
      <g transform="translate(835.165625 252.173348) scale(0.1 -0.1)">
       <defs>
        <path id="DejaVuSans-2e" d="M 684 794 
L 1344 794 
L 1344 0 
L 684 0 
L 684 794 
z
" transform="scale(0.015625)"/>
       </defs>
       <use xlink:href="#DejaVuSans-30"/>
       <use xlink:href="#DejaVuSans-2e" x="63.623047"/>
       <use xlink:href="#DejaVuSans-32" x="95.410156"/>
      </g>
     </g>
    </g>
    <g id="ytick_6">
     <g id="line2d_20">
      <g>
       <use xlink:href="#m3e85aab08a" x="828.165625" y="216.793843" style="stroke: #000000; stroke-width: 0.8"/>
      </g>
     </g>
     <g id="text_14">
      <!-- 0.4 -->
      <g transform="translate(835.165625 220.593062) scale(0.1 -0.1)">
       <defs>
        <path id="DejaVuSans-34" d="M 2419 4116 
L 825 1625 
L 2419 1625 
L 2419 4116 
z
M 2253 4666 
L 3047 4666 
L 3047 1625 
L 3713 1625 
L 3713 1100 
L 3047 1100 
L 3047 0 
L 2419 0 
L 2419 1100 
L 313 1100 
L 313 1709 
L 2253 4666 
z
" transform="scale(0.015625)"/>
       </defs>
       <use xlink:href="#DejaVuSans-30"/>
       <use xlink:href="#DejaVuSans-2e" x="63.623047"/>
       <use xlink:href="#DejaVuSans-34" x="95.410156"/>
      </g>
     </g>
    </g>
    <g id="ytick_7">
     <g id="line2d_21">
      <g>
       <use xlink:href="#m3e85aab08a" x="828.165625" y="185.213557" style="stroke: #000000; stroke-width: 0.8"/>
      </g>
     </g>
     <g id="text_15">
      <!-- 0.6 -->
      <g transform="translate(835.165625 189.012776) scale(0.1 -0.1)">
       <use xlink:href="#DejaVuSans-30"/>
       <use xlink:href="#DejaVuSans-2e" x="63.623047"/>
       <use xlink:href="#DejaVuSans-36" x="95.410156"/>
      </g>
     </g>
    </g>
    <g id="ytick_8">
     <g id="line2d_22">
      <g>
       <use xlink:href="#m3e85aab08a" x="828.165625" y="153.633271" style="stroke: #000000; stroke-width: 0.8"/>
      </g>
     </g>
     <g id="text_16">
      <!-- 0.8 -->
      <g transform="translate(835.165625 157.432489) scale(0.1 -0.1)">
       <use xlink:href="#DejaVuSans-30"/>
       <use xlink:href="#DejaVuSans-2e" x="63.623047"/>
       <use xlink:href="#DejaVuSans-38" x="95.410156"/>
      </g>
     </g>
    </g>
    <g id="ytick_9">
     <g id="line2d_23">
      <g>
       <use xlink:href="#m3e85aab08a" x="828.165625" y="122.052984" style="stroke: #000000; stroke-width: 0.8"/>
      </g>
     </g>
     <g id="text_17">
      <!-- 1.0 -->
      <g transform="translate(835.165625 125.852203) scale(0.1 -0.1)">
       <use xlink:href="#DejaVuSans-31"/>
       <use xlink:href="#DejaVuSans-2e" x="63.623047"/>
       <use xlink:href="#DejaVuSans-30" x="95.410156"/>
      </g>
     </g>
    </g>
    <g id="ytick_10">
     <g id="line2d_24">
      <g>
       <use xlink:href="#m3e85aab08a" x="828.165625" y="90.472698" style="stroke: #000000; stroke-width: 0.8"/>
      </g>
     </g>
     <g id="text_18">
      <!-- 1.2 -->
      <g transform="translate(835.165625 94.271917) scale(0.1 -0.1)">
       <use xlink:href="#DejaVuSans-31"/>
       <use xlink:href="#DejaVuSans-2e" x="63.623047"/>
       <use xlink:href="#DejaVuSans-32" x="95.410156"/>
      </g>
     </g>
    </g>
    <g id="ytick_11">
     <g id="line2d_25">
      <g>
       <use xlink:href="#m3e85aab08a" x="828.165625" y="58.892412" style="stroke: #000000; stroke-width: 0.8"/>
      </g>
     </g>
     <g id="text_19">
      <!-- 1.4 -->
      <g transform="translate(835.165625 62.691631) scale(0.1 -0.1)">
       <use xlink:href="#DejaVuSans-31"/>
       <use xlink:href="#DejaVuSans-2e" x="63.623047"/>
       <use xlink:href="#DejaVuSans-34" x="95.410156"/>
      </g>
     </g>
    </g>
    <g id="text_20">
     <!-- Natural gas consumption [MWh] -->
     <g transform="translate(862.667188 228.393125) rotate(-90) scale(0.1 -0.1)">
      <defs>
       <path id="DejaVuSans-4e" d="M 628 4666 
L 1478 4666 
L 3547 763 
L 3547 4666 
L 4159 4666 
L 4159 0 
L 3309 0 
L 1241 3903 
L 1241 0 
L 628 0 
L 628 4666 
z
" transform="scale(0.015625)"/>
       <path id="DejaVuSans-75" d="M 544 1381 
L 544 3500 
L 1119 3500 
L 1119 1403 
Q 1119 906 1312 657 
Q 1506 409 1894 409 
Q 2359 409 2629 706 
Q 2900 1003 2900 1516 
L 2900 3500 
L 3475 3500 
L 3475 0 
L 2900 0 
L 2900 538 
Q 2691 219 2414 64 
Q 2138 -91 1772 -91 
Q 1169 -91 856 284 
Q 544 659 544 1381 
z
M 1991 3584 
L 1991 3584 
z
" transform="scale(0.015625)"/>
       <path id="DejaVuSans-72" d="M 2631 2963 
Q 2534 3019 2420 3045 
Q 2306 3072 2169 3072 
Q 1681 3072 1420 2755 
Q 1159 2438 1159 1844 
L 1159 0 
L 581 0 
L 581 3500 
L 1159 3500 
L 1159 2956 
Q 1341 3275 1631 3429 
Q 1922 3584 2338 3584 
Q 2397 3584 2469 3576 
Q 2541 3569 2628 3553 
L 2631 2963 
z
" transform="scale(0.015625)"/>
       <path id="DejaVuSans-6c" d="M 603 4863 
L 1178 4863 
L 1178 0 
L 603 0 
L 603 4863 
z
" transform="scale(0.015625)"/>
       <path id="DejaVuSans-67" d="M 2906 1791 
Q 2906 2416 2648 2759 
Q 2391 3103 1925 3103 
Q 1463 3103 1205 2759 
Q 947 2416 947 1791 
Q 947 1169 1205 825 
Q 1463 481 1925 481 
Q 2391 481 2648 825 
Q 2906 1169 2906 1791 
z
M 3481 434 
Q 3481 -459 3084 -895 
Q 2688 -1331 1869 -1331 
Q 1566 -1331 1297 -1286 
Q 1028 -1241 775 -1147 
L 775 -588 
Q 1028 -725 1275 -790 
Q 1522 -856 1778 -856 
Q 2344 -856 2625 -561 
Q 2906 -266 2906 331 
L 2906 616 
Q 2728 306 2450 153 
Q 2172 0 1784 0 
Q 1141 0 747 490 
Q 353 981 353 1791 
Q 353 2603 747 3093 
Q 1141 3584 1784 3584 
Q 2172 3584 2450 3431 
Q 2728 3278 2906 2969 
L 2906 3500 
L 3481 3500 
L 3481 434 
z
" transform="scale(0.015625)"/>
       <path id="DejaVuSans-73" d="M 2834 3397 
L 2834 2853 
Q 2591 2978 2328 3040 
Q 2066 3103 1784 3103 
Q 1356 3103 1142 2972 
Q 928 2841 928 2578 
Q 928 2378 1081 2264 
Q 1234 2150 1697 2047 
L 1894 2003 
Q 2506 1872 2764 1633 
Q 3022 1394 3022 966 
Q 3022 478 2636 193 
Q 2250 -91 1575 -91 
Q 1294 -91 989 -36 
Q 684 19 347 128 
L 347 722 
Q 666 556 975 473 
Q 1284 391 1588 391 
Q 1994 391 2212 530 
Q 2431 669 2431 922 
Q 2431 1156 2273 1281 
Q 2116 1406 1581 1522 
L 1381 1569 
Q 847 1681 609 1914 
Q 372 2147 372 2553 
Q 372 3047 722 3315 
Q 1072 3584 1716 3584 
Q 2034 3584 2315 3537 
Q 2597 3491 2834 3397 
z
" transform="scale(0.015625)"/>
       <path id="DejaVuSans-63" d="M 3122 3366 
L 3122 2828 
Q 2878 2963 2633 3030 
Q 2388 3097 2138 3097 
Q 1578 3097 1268 2742 
Q 959 2388 959 1747 
Q 959 1106 1268 751 
Q 1578 397 2138 397 
Q 2388 397 2633 464 
Q 2878 531 3122 666 
L 3122 134 
Q 2881 22 2623 -34 
Q 2366 -91 2075 -91 
Q 1284 -91 818 406 
Q 353 903 353 1747 
Q 353 2603 823 3093 
Q 1294 3584 2113 3584 
Q 2378 3584 2631 3529 
Q 2884 3475 3122 3366 
z
" transform="scale(0.015625)"/>
       <path id="DejaVuSans-6f" d="M 1959 3097 
Q 1497 3097 1228 2736 
Q 959 2375 959 1747 
Q 959 1119 1226 758 
Q 1494 397 1959 397 
Q 2419 397 2687 759 
Q 2956 1122 2956 1747 
Q 2956 2369 2687 2733 
Q 2419 3097 1959 3097 
z
M 1959 3584 
Q 2709 3584 3137 3096 
Q 3566 2609 3566 1747 
Q 3566 888 3137 398 
Q 2709 -91 1959 -91 
Q 1206 -91 779 398 
Q 353 888 353 1747 
Q 353 2609 779 3096 
Q 1206 3584 1959 3584 
z
" transform="scale(0.015625)"/>
       <path id="DejaVuSans-6d" d="M 3328 2828 
Q 3544 3216 3844 3400 
Q 4144 3584 4550 3584 
Q 5097 3584 5394 3201 
Q 5691 2819 5691 2113 
L 5691 0 
L 5113 0 
L 5113 2094 
Q 5113 2597 4934 2840 
Q 4756 3084 4391 3084 
Q 3944 3084 3684 2787 
Q 3425 2491 3425 1978 
L 3425 0 
L 2847 0 
L 2847 2094 
Q 2847 2600 2669 2842 
Q 2491 3084 2119 3084 
Q 1678 3084 1418 2786 
Q 1159 2488 1159 1978 
L 1159 0 
L 581 0 
L 581 3500 
L 1159 3500 
L 1159 2956 
Q 1356 3278 1631 3431 
Q 1906 3584 2284 3584 
Q 2666 3584 2933 3390 
Q 3200 3197 3328 2828 
z
" transform="scale(0.015625)"/>
       <path id="DejaVuSans-5b" d="M 550 4863 
L 1875 4863 
L 1875 4416 
L 1125 4416 
L 1125 -397 
L 1875 -397 
L 1875 -844 
L 550 -844 
L 550 4863 
z
" transform="scale(0.015625)"/>
       <path id="DejaVuSans-4d" d="M 628 4666 
L 1569 4666 
L 2759 1491 
L 3956 4666 
L 4897 4666 
L 4897 0 
L 4281 0 
L 4281 4097 
L 3078 897 
L 2444 897 
L 1241 4097 
L 1241 0 
L 628 0 
L 628 4666 
z
" transform="scale(0.015625)"/>
       <path id="DejaVuSans-68" d="M 3513 2113 
L 3513 0 
L 2938 0 
L 2938 2094 
Q 2938 2591 2744 2837 
Q 2550 3084 2163 3084 
Q 1697 3084 1428 2787 
Q 1159 2491 1159 1978 
L 1159 0 
L 581 0 
L 581 4863 
L 1159 4863 
L 1159 2956 
Q 1366 3272 1645 3428 
Q 1925 3584 2291 3584 
Q 2894 3584 3203 3211 
Q 3513 2838 3513 2113 
z
" transform="scale(0.015625)"/>
       <path id="DejaVuSans-5d" d="M 1947 4863 
L 1947 -844 
L 622 -844 
L 622 -397 
L 1369 -397 
L 1369 4416 
L 622 4416 
L 622 4863 
L 1947 4863 
z
" transform="scale(0.015625)"/>
      </defs>
      <use xlink:href="#DejaVuSans-4e"/>
      <use xlink:href="#DejaVuSans-61" x="74.804688"/>
      <use xlink:href="#DejaVuSans-74" x="136.083984"/>
      <use xlink:href="#DejaVuSans-75" x="175.292969"/>
      <use xlink:href="#DejaVuSans-72" x="238.671875"/>
      <use xlink:href="#DejaVuSans-61" x="279.785156"/>
      <use xlink:href="#DejaVuSans-6c" x="341.064453"/>
      <use xlink:href="#DejaVuSans-20" x="368.847656"/>
      <use xlink:href="#DejaVuSans-67" x="400.634766"/>
      <use xlink:href="#DejaVuSans-61" x="464.111328"/>
      <use xlink:href="#DejaVuSans-73" x="525.390625"/>
      <use xlink:href="#DejaVuSans-20" x="577.490234"/>
      <use xlink:href="#DejaVuSans-63" x="609.277344"/>
      <use xlink:href="#DejaVuSans-6f" x="664.257812"/>
      <use xlink:href="#DejaVuSans-6e" x="725.439453"/>
      <use xlink:href="#DejaVuSans-73" x="788.818359"/>
      <use xlink:href="#DejaVuSans-75" x="840.917969"/>
      <use xlink:href="#DejaVuSans-6d" x="904.296875"/>
      <use xlink:href="#DejaVuSans-70" x="1001.708984"/>
      <use xlink:href="#DejaVuSans-74" x="1065.185547"/>
      <use xlink:href="#DejaVuSans-69" x="1104.394531"/>
      <use xlink:href="#DejaVuSans-6f" x="1132.177734"/>
      <use xlink:href="#DejaVuSans-6e" x="1193.359375"/>
      <use xlink:href="#DejaVuSans-20" x="1256.738281"/>
      <use xlink:href="#DejaVuSans-5b" x="1288.525391"/>
      <use xlink:href="#DejaVuSans-4d" x="1327.539062"/>
      <use xlink:href="#DejaVuSans-57" x="1413.818359"/>
      <use xlink:href="#DejaVuSans-68" x="1512.695312"/>
      <use xlink:href="#DejaVuSans-5d" x="1576.074219"/>
     </g>
    </g>
    <g id="text_21">
     <!-- 1e8 -->
     <g transform="translate(809.2875 33.76) scale(0.1 -0.1)">
      <use xlink:href="#DejaVuSans-31"/>
      <use xlink:href="#DejaVuSans-65" x="63.623047"/>
      <use xlink:href="#DejaVuSans-38" x="125.146484"/>
     </g>
    </g>
   </g>
   <g id="line2d_26">
    <path d="M 46.965625 225.294478 
L 51.787847 229.747561 
L 56.610069 238.819022 
L 61.432292 236.8507 
L 66.254514 239.31965 
L 71.076736 233.793249 
L 75.898958 212.676572 
L 80.721181 192.744004 
L 85.543403 185.181879 
L 90.365625 174.97418 
L 95.187847 159.567197 
L 100.010069 202.690219 
L 104.832292 209.489043 
L 109.654514 231.598633 
L 114.476736 237.180731 
L 119.298958 240.006053 
L 124.121181 243.206098 
L 128.943403 233.530292 
L 133.765625 211.296302 
L 138.587847 193.713475 
L 143.410069 177.504938 
L 148.232292 164.851214 
L 153.054514 170.732526 
L 157.876736 170.636874 
L 162.698958 208.904528 
L 167.521181 226.581982 
L 172.343403 238.45708 
L 177.165625 244.360656 
L 181.987847 244.830597 
L 186.810069 233.889382 
L 191.632292 219.77717 
L 196.454514 190.921337 
L 201.276736 183.042759 
L 206.098958 180.794043 
L 210.921181 195.615157 
L 215.743403 204.356516 
L 220.565625 227.674772 
L 225.387847 231.255246 
L 230.210069 242.196688 
L 235.032292 243.687926 
L 239.854514 242.65208 
L 244.676736 238.566402 
L 249.498958 227.095993 
L 259.143403 181.891955 
L 263.965625 174.139761 
L 268.787847 178.429207 
L 273.610069 193.395188 
L 278.432292 217.257141 
L 283.254514 233.721065 
L 288.076736 242.974332 
L 292.898958 246.484222 
L 297.721181 248.44 
L 302.543403 236.104482 
L 307.365625 210.470697 
L 312.187847 204.995437 
L 317.010069 200.140532 
L 321.832292 173.939638 
L 326.654514 187.246252 
L 331.476736 184.072114 
L 336.298958 211.702893 
L 341.121181 231.935872 
L 345.943403 241.956007 
L 350.765625 243.923515 
L 355.587847 242.822347 
L 360.410069 238.00943 
L 365.232292 149.451741 
L 370.054514 109.894472 
L 374.876736 89.110398 
L 379.698958 46.84 
L 384.521181 109.380383 
L 389.343403 133.813836 
L 394.165625 151.065324 
L 398.987847 185.896538 
L 403.810069 209.609249 
L 408.632292 205.646652 
L 413.454514 208.788554 
L 418.276736 188.22084 
L 423.098958 170.413978 
L 427.921181 117.589619 
L 432.743403 91.699144 
L 437.565625 99.706028 
L 442.387847 75.301403 
L 447.210069 90.787735 
L 452.032292 181.258316 
L 456.854514 201.407299 
L 461.676736 208.673614 
L 466.498958 210.151919 
L 471.321181 208.284691 
L 476.143403 199.001369 
L 480.965625 164.227474 
L 485.787847 118.052246 
L 490.610069 101.726134 
L 495.432292 66.677764 
L 500.254514 114.142915 
L 505.076736 127.937525 
L 509.898958 161.618714 
L 514.721181 169.617074 
L 519.543403 209.23916 
L 524.365625 203.397511 
L 529.187847 206.511295 
L 534.010069 190.850017 
L 538.832292 159.805221 
L 543.654514 114.126998 
L 548.476736 100.428168 
L 553.298958 88.368308 
L 558.121181 117.856523 
L 562.943403 115.424736 
L 567.765625 171.760138 
L 572.587847 181.564789 
L 577.410069 200.414953 
L 582.232292 199.702744 
L 587.054514 204.811795 
L 591.876736 192.465124 
L 596.698958 153.850114 
L 601.521181 121.080594 
L 606.343403 85.778193 
L 611.165625 59.318353 
L 615.987847 91.080474 
L 620.810069 99.437985 
L 625.632292 128.045486 
L 635.276736 205.688061 
L 644.921181 207.797391 
L 649.743403 200.441125 
L 654.565625 160.574577 
L 659.387847 111.60333 
L 664.210069 87.751641 
L 669.032292 84.612112 
L 673.854514 119.630427 
L 678.676736 117.127256 
L 683.498958 154.579706 
L 688.321181 197.881894 
L 693.143403 213.862521 
L 697.965625 219.160448 
L 702.787847 222.348103 
L 707.610069 205.180281 
L 712.432292 192.503883 
L 717.254514 153.248822 
L 722.076736 105.938949 
L 731.721181 128.201675 
L 736.543403 134.65622 
L 741.365625 164.724895 
L 746.187847 201.356452 
L 751.010069 219.172879 
L 755.832292 220.924324 
L 760.654514 218.061622 
L 765.476736 217.361049 
L 770.298958 186.435456 
L 775.121181 138.401322 
L 779.943403 118.085332 
L 784.765625 89.646436 
L 789.587847 143.603631 
L 794.410069 149.566375 
L 799.232292 173.674082 
L 804.054514 204.787191 
L 808.876736 212.330229 
L 813.698958 218.205582 
L 818.521181 221.285988 
L 823.343403 209.460233 
L 828.165625 179.445654 
L 828.165625 179.445654 
" clip-path="url(#p9548a0d7fc)" style="fill: none; stroke: #ff7f0e; stroke-width: 1.5; stroke-linecap: square"/>
   </g>
   <g id="patch_7">
    <path d="M 46.965625 258.52 
L 46.965625 36.76 
" style="fill: none; stroke: #000000; stroke-width: 0.8; stroke-linejoin: miter; stroke-linecap: square"/>
   </g>
   <g id="patch_8">
    <path d="M 828.165625 258.52 
L 828.165625 36.76 
" style="fill: none; stroke: #000000; stroke-width: 0.8; stroke-linejoin: miter; stroke-linecap: square"/>
   </g>
   <g id="patch_9">
    <path d="M 46.965625 258.52 
L 828.165625 258.52 
" style="fill: none; stroke: #000000; stroke-width: 0.8; stroke-linejoin: miter; stroke-linecap: square"/>
   </g>
   <g id="patch_10">
    <path d="M 46.965625 36.76 
L 828.165625 36.76 
" style="fill: none; stroke: #000000; stroke-width: 0.8; stroke-linejoin: miter; stroke-linecap: square"/>
   </g>
   <g id="legend_1">
    <g id="patch_11">
     <path d="M 724.420313 59.438125 
L 821.165625 59.438125 
Q 823.165625 59.438125 823.165625 57.438125 
L 823.165625 43.76 
Q 823.165625 41.76 821.165625 41.76 
L 724.420313 41.76 
Q 722.420313 41.76 722.420313 43.76 
L 722.420313 57.438125 
Q 722.420313 59.438125 724.420313 59.438125 
z
" style="fill: #ffffff; opacity: 0.8; stroke: #cccccc; stroke-linejoin: miter"/>
    </g>
    <g id="line2d_27">
     <path d="M 726.420313 49.858437 
L 736.420313 49.858437 
L 746.420313 49.858437 
" style="fill: none; stroke: #ff7f0e; stroke-width: 1.5; stroke-linecap: square"/>
    </g>
    <g id="text_22">
     <!-- consumption -->
     <g transform="translate(754.420313 53.358437) scale(0.1 -0.1)">
      <use xlink:href="#DejaVuSans-63"/>
      <use xlink:href="#DejaVuSans-6f" x="54.980469"/>
      <use xlink:href="#DejaVuSans-6e" x="116.162109"/>
      <use xlink:href="#DejaVuSans-73" x="179.541016"/>
      <use xlink:href="#DejaVuSans-75" x="231.640625"/>
      <use xlink:href="#DejaVuSans-6d" x="295.019531"/>
      <use xlink:href="#DejaVuSans-70" x="392.431641"/>
      <use xlink:href="#DejaVuSans-74" x="455.908203"/>
      <use xlink:href="#DejaVuSans-69" x="495.117188"/>
      <use xlink:href="#DejaVuSans-6f" x="522.900391"/>
      <use xlink:href="#DejaVuSans-6e" x="584.082031"/>
     </g>
    </g>
   </g>
  </g>
  <g id="legend_2">
   <g id="patch_12">
    <path d="M 357.1375 37.35625 
L 514.809375 37.35625 
Q 516.809375 37.35625 516.809375 35.35625 
L 516.809375 7 
Q 516.809375 5 514.809375 5 
L 357.1375 5 
Q 355.1375 5 355.1375 7 
L 355.1375 35.35625 
Q 355.1375 37.35625 357.1375 37.35625 
z
" style="fill: #ffffff; opacity: 0.8; stroke: #cccccc; stroke-linejoin: miter"/>
   </g>
   <g id="line2d_28">
    <path d="M 359.1375 13.098437 
L 369.1375 13.098437 
L 379.1375 13.098437 
" style="fill: none; stroke: #1f77b4; stroke-width: 1.5; stroke-linecap: square"/>
   </g>
   <g id="text_23">
    <!-- Wind Speed -->
    <g transform="translate(387.1375 16.598437) scale(0.1 -0.1)">
     <use xlink:href="#DejaVuSans-57"/>
     <use xlink:href="#DejaVuSans-69" x="96.626953"/>
     <use xlink:href="#DejaVuSans-6e" x="124.410156"/>
     <use xlink:href="#DejaVuSans-64" x="187.789062"/>
     <use xlink:href="#DejaVuSans-20" x="251.265625"/>
     <use xlink:href="#DejaVuSans-53" x="283.052734"/>
     <use xlink:href="#DejaVuSans-70" x="346.529297"/>
     <use xlink:href="#DejaVuSans-65" x="410.005859"/>
     <use xlink:href="#DejaVuSans-65" x="471.529297"/>
     <use xlink:href="#DejaVuSans-64" x="533.052734"/>
    </g>
   </g>
   <g id="line2d_29">
    <path d="M 359.1375 27.776563 
L 369.1375 27.776563 
L 379.1375 27.776563 
" style="fill: none; stroke: #ff7f0e; stroke-width: 1.5; stroke-linecap: square"/>
   </g>
   <g id="text_24">
    <!-- Natural gas consumption -->
    <g transform="translate(387.1375 31.276563) scale(0.1 -0.1)">
     <use xlink:href="#DejaVuSans-4e"/>
     <use xlink:href="#DejaVuSans-61" x="74.804688"/>
     <use xlink:href="#DejaVuSans-74" x="136.083984"/>
     <use xlink:href="#DejaVuSans-75" x="175.292969"/>
     <use xlink:href="#DejaVuSans-72" x="238.671875"/>
     <use xlink:href="#DejaVuSans-61" x="279.785156"/>
     <use xlink:href="#DejaVuSans-6c" x="341.064453"/>
     <use xlink:href="#DejaVuSans-20" x="368.847656"/>
     <use xlink:href="#DejaVuSans-67" x="400.634766"/>
     <use xlink:href="#DejaVuSans-61" x="464.111328"/>
     <use xlink:href="#DejaVuSans-73" x="525.390625"/>
     <use xlink:href="#DejaVuSans-20" x="577.490234"/>
     <use xlink:href="#DejaVuSans-63" x="609.277344"/>
     <use xlink:href="#DejaVuSans-6f" x="664.257812"/>
     <use xlink:href="#DejaVuSans-6e" x="725.439453"/>
     <use xlink:href="#DejaVuSans-73" x="788.818359"/>
     <use xlink:href="#DejaVuSans-75" x="840.917969"/>
     <use xlink:href="#DejaVuSans-6d" x="904.296875"/>
     <use xlink:href="#DejaVuSans-70" x="1001.708984"/>
     <use xlink:href="#DejaVuSans-74" x="1065.185547"/>
     <use xlink:href="#DejaVuSans-69" x="1104.394531"/>
     <use xlink:href="#DejaVuSans-6f" x="1132.177734"/>
     <use xlink:href="#DejaVuSans-6e" x="1193.359375"/>
    </g>
   </g>
  </g>
 </g>
 <defs>
  <clipPath id="p9548a0d7fc">
   <rect x="46.965625" y="36.76" width="781.2" height="221.76"/>
  </clipPath>
 </defs>
</svg>
